[Header]
FileType HTR
DataType HTRS
FileVersion 1
NumSegments 64
NumFrames 4
DataFrameRate 30
EulerRotationOrder ZYX
CalibrationUnits mm
RotationUnits Degrees
GlobalAxisofGravity Y
BoneLengthAxis Y
ScaleFactor 1.0
[SegmentNames&Hierarchy]
Hips	GLOBAL
Spine	Hips
Spine1	Spine
Spine2	Spine1
Neck	Spine2
Head	Neck
LeftEye	Head
RightEye	Head
LeftShoulder	Spine2
LeftArm	LeftShoulder
LeftForeArm	LeftArm
LeftHand	LeftForeArm
LeftHandThumb1	LeftHand
LeftHandThumb2	LeftHandThumb1
LeftHandThumb3	LeftHandThumb2
LeftHandThumb4	LeftHandThumb3
LeftHandIndex1	LeftHand
LeftHandIndex2	LeftHandIndex1
LeftHandIndex3	LeftHandIndex2
LeftHandIndex4	LeftHandIndex3
LeftHandMiddle1	LeftHand
LeftHandMiddle2	LeftHandMiddle1
LeftHandMiddle3	LeftHandMiddle2
LeftHandMiddle4	LeftHandMiddle3
LeftHandRing1	LeftHand
LeftHandRing2	LeftHandRing1
LeftHandRing3	LeftHandRing2
LeftHandRing4	LeftHandRing3
LeftHandPinky1	LeftHand
LeftHandPinky2	LeftHandPinky1
LeftHandPinky3	LeftHandPinky2
LeftHandPinky4	LeftHandPinky3
RightShoulder	Spine2
RightArm	RightShoulder
RightForeArm	RightArm
RightHand	RightForeArm
RightHandPinky1	RightHand
RightHandPinky2	RightHandPinky1
RightHandPinky3	RightHandPinky2
RightHandPinky4	RightHandPinky3
RightHandRing1	RightHand
RightHandRing2	RightHandRing1
RightHandRing3	RightHandRing2
RightHandRing4	RightHandRing3
RightHandMiddle1	RightHand
RightHandMiddle2	RightHandMiddle1
RightHandMiddle3	RightHandMiddle2
RightHandMiddle4	RightHandMiddle3
RightHandIndex1	RightHand
RightHandIndex2	RightHandIndex1
RightHandIndex3	RightHandIndex2
RightHandIndex4	RightHandIndex3
RightHandThumb1	RightHand
RightHandThumb2	RightHandThumb1
RightHandThumb3	RightHandThumb2
RightHandThumb4	RightHandThumb3
LeftUpLeg	Hips
LeftLeg	LeftUpLeg
LeftFoot	LeftLeg
LeftToeBase	LeftFoot
RightUpLeg	Hips
RightLeg	RightUpLeg
RightFoot	RightLeg
RightToeBase	RightFoot
[BasePosition]
Hips	0	0	0	0	0	0	1
Spine	0	0	0	0	0	0	1
Spine1	0	0	0	0	0	0	1
Spine2	0	0	0	0	0	0	1
Neck	0	0	0	0	0	0	1
Head	0	0	0	0	0	0	1
LeftEye	0	0	0	0	0	0	1
RightEye	0	0	0	0	0	0	1
LeftShoulder	0	0	0	0	0	0	1
LeftArm	0	0	0	0	0	0	1
LeftForeArm	0	0	0	0	0	0	1
LeftHand	0	0	0	0	0	0	1
LeftHandThumb1	0	0	0	0	0	0	1
LeftHandThumb2	0	0	0	0	0	0	1
LeftHandThumb3	0	0	0	0	0	0	1
LeftHandThumb4	0	0	0	0	0	0	1
LeftHandIndex1	0	0	0	0	0	0	1
LeftHandIndex2	0	0	0	0	0	0	1
LeftHandIndex3	0	0	0	0	0	0	1
LeftHandIndex4	0	0	0	0	0	0	1
LeftHandMiddle1	0	0	0	0	0	0	1
LeftHandMiddle2	0	0	0	0	0	0	1
LeftHandMiddle3	0	0	0	0	0	0	1
LeftHandMiddle4	0	0	0	0	0	0	1
LeftHandRing1	0	0	0	0	0	0	1
LeftHandRing2	0	0	0	0	0	0	1
LeftHandRing3	0	0	0	0	0	0	1
LeftHandRing4	0	0	0	0	0	0	1
LeftHandPinky1	0	0	0	0	0	0	1
LeftHandPinky2	0	0	0	0	0	0	1
LeftHandPinky3	0	0	0	0	0	0	1
LeftHandPinky4	0	0	0	0	0	0	1
RightShoulder	0	0	0	0	0	0	1
RightArm	0	0	0	0	0	0	1
RightForeArm	0	0	0	0	0	0	1
RightHand	0	0	0	0	0	0	1
RightHandPinky1	0	0	0	0	0	0	1
RightHandPinky2	0	0	0	0	0	0	1
RightHandPinky3	0	0	0	0	0	0	1
RightHandPinky4	0	0	0	0	0	0	1
RightHandRing1	0	0	0	0	0	0	1
RightHandRing2	0	0	0	0	0	0	1
RightHandRing3	0	0	0	0	0	0	1
RightHandRing4	0	0	0	0	0	0	1
RightHandMiddle1	0	0	0	0	0	0	1
RightHandMiddle2	0	0	0	0	0	0	1
RightHandMiddle3	0	0	0	0	0	0	1
RightHandMiddle4	0	0	0	0	0	0	1
RightHandIndex1	0	0	0	0	0	0	1
RightHandIndex2	0	0	0	0	0	0	1
RightHandIndex3	0	0	0	0	0	0	1
RightHandIndex4	0	0	0	0	0	0	1
RightHandThumb1	0	0	0	0	0	0	1
RightHandThumb2	0	0	0	0	0	0	1
RightHandThumb3	0	0	0	0	0	0	1
RightHandThumb4	0	0	0	0	0	0	1
LeftUpLeg	0	0	0	0	0	0	1
LeftLeg	0	0	0	0	0	0	1
LeftFoot	0	0	0	0	0	0	1
LeftToeBase	0	0	0	0	0	0	1
RightUpLeg	0	0	0	0	0	0	1
RightLeg	0	0	0	0	0	0	1
RightFoot	0	0	0	0	0	0	1
RightToeBase	0	0	0	0	0	0	1
[Hips]
13	0.2682558298	715.9924927	223.8243713	12.28469563	0.4736749828	0.1397029012	1.0
14	0.5878585577	677.4553833	249.2485962	14.62453175	0.661149621	-0.007005506195	1.0
15	0.9239398241	646.2759399	270.7975769	17.28026581	0.8441473246	-0.1718595475	1.0
16	1.241346359	622.2955933	287.5306396	20.15693665	0.9953396916	-0.3359272182	1.0
[Spine]
13	0	101.8159943	1.315000057	-7.656087399	-0.4927037954	-0.03561820835	1.0
14	0	101.8159943	1.315000057	-6.600871563	-0.6375938654	0.1740101874	1.0
15	0	101.8159943	1.315000057	-5.192391872	-0.754773736	0.4147715569	1.0
16	0	101.8159943	1.315000057	-3.520123959	-0.8185870647	0.6583735943	1.0
[Spine1]
13	0	100.8349991	-10.00800037	-21.14979744	-1.6726588e-05	6.529837992e-05	1.0
14	0	100.8349991	-10.00800037	-20.08420563	-1.796203287e-05	6.496801507e-05	1.0
15	0	100.8349991	-10.00800037	-18.71178436	-1.954384243e-05	6.450929504e-05	1.0
16	0	100.8349991	-10.00800037	-17.11047745	-2.137503361e-05	6.392646901e-05	1.0
[Spine2]
13	0	91	-13.73399925	-21.76491165	1.491026751e-07	2.795333103e-07	1.0
14	0	91	-13.73399925	-19.80446243	1.384519237e-07	2.848918825e-07	1.0
15	0	91	-13.73399925	-17.30883026	1.246268937e-07	2.911572778e-07	1.0
16	0	91	-13.73399925	-14.46223259	1.085315802e-07	2.975052098e-07	1.0
[Neck]
13	0	166.7169952	-25.16200066	-10.41795444	3.737356167e-07	2.875345047e-07	1.0
14	0	166.7169952	-25.16200066	-11.35919476	3.788828451e-07	2.807398118e-07	1.0
15	0	166.7169952	-25.16200066	-12.31134415	3.839667215e-07	2.737816942e-07	1.0
16	0	166.7169952	-25.16200066	-13.24945736	3.888549998e-07	2.66829943e-07	1.0
[Head]
13	0	96.17900085	16.84999847	12.14390469	-0.2120433897	-0.1953071207	1.0
14	0	96.17900085	16.84999847	5.012851238	-0.2200105339	-0.1877146363	1.0
15	0	96.17900085	16.84999847	-3.178469419	-0.2282773405	-0.1748426706	1.0
16	0	96.17900085	16.84999847	-11.79841614	-0.2355005592	-0.1591225564	1.0
[LeftEye]
13	30.6760006	64.09500122	92.83599854	0	0	0	1.0
14	30.6760006	64.09500122	92.83599854	0	0	0	1.0
15	30.6760006	64.09500122	92.83599854	0	0	0	1.0
16	30.6760006	64.09500122	92.83599854	0	0	0	1.0
[RightEye]
13	-30.6760006	64.09500122	92.83499908	0	0	0	1.0
14	-30.6760006	64.09500122	92.83499908	0	0	0	1.0
15	-30.6760006	64.09500122	92.83499908	0	0	0	1.0
16	-30.6760006	64.09500122	92.83499908	0	0	0	1.0
[LeftShoulder]
13	45.70400238	109.4599991	-26.28000069	14.47931194	7.700796127	39.97408295	1.0
14	45.70400238	109.4599991	-26.28000069	14.15401077	5.596088886	43.30618286	1.0
15	45.70400238	109.4599991	-26.28000069	13.19606209	4.031042099	44.94901276	1.0
16	45.70400238	109.4599991	-26.28000069	11.95163059	3.31010437	44.3541832	1.0
[LeftArm]
13	105.923996	-5.24600029	-22.32099915	-26.04063797	1.415556073	1.953506827	1.0
14	105.923996	-5.24600029	-22.32099915	-45.21385574	-5.688849926	5.484399796	1.0
15	105.923996	-5.24600029	-22.32099915	-59.84897232	-10.33072472	10.21431446	1.0
16	105.923996	-5.24600029	-22.32099915	-65.48577881	-11.08964157	13.88166904	1.0
[LeftForeArm]
13	278.414978	-0.0009999999311	0	6.674621886e-07	-10.64601803	-0.0002000743843	1.0
14	278.414978	-0.0009999999311	0	7.256361187e-06	-7.016030312	-0.0002048810711	1.0
15	278.414978	-0.0009999999311	0	5.302807494e-06	-5.936829567	-0.0002086333261	1.0
16	278.414978	-0.0009999999311	0	7.957181651e-07	-9.890656471	-0.0001961000235	1.0
[LeftHand]
13	283.2879944	0	0	-81.34261322	18.48019218	13.24299049	1.0
14	283.2879944	0	0	-74.98842621	18.1165123	17.39641953	1.0
15	283.2879944	0	0	-67.56708527	16.85257721	21.4734478	1.0
16	283.2879944	0	0	-61.13568878	15.208498	24.71056938	1.0
[LeftHandThumb1]
13	24.6609993	-15.75	26.8239994	1.234319329	-43.86620331	3.479398489	1.0
14	24.6609993	-15.75	26.8239994	10.58662987	-39.67596817	-16.38809967	1.0
15	24.6609993	-15.75	26.8239994	15.81645679	-32.58774185	-31.361269	1.0
16	24.6609993	-15.75	26.8239994	16.17813301	-26.00323296	-38.10343933	1.0
[LeftHandThumb2]
13	32.29800034	-18.64699936	18.64699936	11.85090637	19.62669373	5.609289169	1.0
14	32.29800034	-18.64699936	18.64699936	25.24846077	33.17113876	14.44868088	1.0
15	32.29800034	-18.64699936	18.64699936	41.35578918	43.73259735	26.67756462	1.0
16	32.29800034	-18.64699936	18.64699936	56.98833084	49.26650238	39.60214233	1.0
[LeftHandThumb3]
13	26.52600098	-15.31499958	15.31499958	2.264816999	11.03236675	16.59848785	1.0
14	26.52600098	-15.31499958	15.31499958	15.4060955	25.29447174	22.83736801	1.0
15	26.52600098	-15.31499958	15.31499958	29.45309067	38.44097137	30.89537239	1.0
16	26.52600098	-15.31499958	15.31499958	44.31689453	46.33662796	40.41714096	1.0
[LeftHandThumb4]
13	19.54599953	-11.28499985	11.28499985	0	0	0	1.0
14	19.54599953	-11.28499985	11.28499985	0	0	0	1.0
15	19.54599953	-11.28499985	11.28499985	0	0	0	1.0
16	19.54599953	-11.28499985	11.28499985	0	0	0	1.0
[LeftHandIndex1]
13	91.09299469	-5.170999527	22.60099792	-0.008426350541	-15.49158192	-7.403630257	1.0
14	91.09299469	-5.170999527	22.60099792	-1.368676186	-5.663534164	-24.10259819	1.0
15	91.09299469	-5.170999527	22.60099792	-2.856640816	5.302902222	-41.17064667	1.0
16	91.09299469	-5.170999527	22.60099792	-4.186021805	13.36346054	-54.56235504	1.0
[LeftHandIndex2]
13	36.76399994	0	0	0.0279515814	0.2454639822	-2.529272079	1.0
14	36.76399994	0	0	-0.2662045658	1.506532907	-15.06343269	1.0
15	36.76399994	0	0	-0.9808202982	3.252509832	-33.87400818	1.0
16	36.76399994	0	0	-1.886416912	4.295140743	-47.40620804	1.0
[LeftHandIndex3]
13	28.83100128	0	0	-0.03251840919	0.2604262829	-2.421271324	1.0
14	28.83100128	0	0	-0.4840052724	2.19504714	-22.37845421	1.0
15	28.83100128	0	0	-1.359995961	3.783265591	-40.26989746	1.0
16	28.83100128	0	0	-1.993530989	4.390907288	-48.82073975	1.0
[LeftHandIndex4]
13	23.92700005	0	0	0	0	0	1.0
14	23.92700005	0	0	0	0	0	1.0
15	23.92700005	0	0	0	0	0	1.0
16	23.92700005	0	0	0	0	0	1.0
[LeftHandMiddle1]
13	95.33399963	0	0	0.1960705072	-7.003054142	1.953920722	1.0
14	95.33399963	0	0	-1.117240667	-2.213465452	-20.23953819	1.0
15	95.33399963	0	0	-2.910505056	3.068651676	-41.11329651	1.0
16	95.33399963	0	0	-4.497133732	6.556909084	-56.18451691	1.0
[LeftHandMiddle2]
13	36.98199844	0	0	-0.03183807805	0.7486121058	-7.241347313	1.0
14	36.98199844	0	0	-0.5154985785	2.251799822	-22.92754173	1.0
15	36.98199844	0	0	-1.445787907	3.864152193	-41.41970825	1.0
16	36.98199844	0	0	-2.409491301	4.721470833	-54.05335617	1.0
[LeftHandMiddle3]
13	29.50900078	0	0	-0.06979944557	0.83116889	-8.141253471	1.0
14	29.50900078	0	0	-0.4744055569	2.268270731	-22.93811417	1.0
15	29.50900078	0	0	-1.175188899	3.522815943	-37.1044426	1.0
16	29.50900078	0	0	-1.945791364	4.348807335	-48.19402695	1.0
[LeftHandMiddle4]
13	28.3390007	0	0	0	0	0	1.0
14	28.3390007	0	0	0	0	0	1.0
15	28.3390007	0	0	0	0	0	1.0
16	28.3390007	0	0	0	0	0	1.0
[LeftHandRing1]
13	91.04499817	-0.4390000105	-18.65100098	0.3336054087	13.80254745	5.215302467	1.0
14	91.04499817	-0.4390000105	-18.65100098	-0.8267802596	11.64779758	-16.53869438	1.0
15	91.04499817	-0.4390000105	-18.65100098	-2.635551214	6.963122845	-37.65153503	1.0
16	91.04499817	-0.4390000105	-18.65100098	-4.23484993	2.216748238	-53.0817337	1.0
[LeftHandRing2]
13	31.54000092	0	0	0.009930564091	0.4158024192	-4.108202934	1.0
14	31.54000092	0	0	-0.3271802664	1.736680746	-17.45665932	1.0
15	31.54000092	0	0	-1.044852614	3.354726076	-35.0422821	1.0
16	31.54000092	0	0	-1.83527112	4.247684479	-46.71949005	1.0
[LeftHandRing3]
13	29.37700081	0	0	-0.006445045583	-0.4105044603	4.103752613	1.0
14	29.37700081	0	0	-0.1546142697	1.115700603	-11.10791683	1.0
15	29.37700081	0	0	-0.682844758	2.762785912	-28.23379517	1.0
16	29.37700081	0	0	-1.379464149	3.767891645	-40.2050209	1.0
[LeftHandRing4]
13	26.47500038	0	0	0	0	0	1.0
14	26.47500038	0	0	0	0	0	1.0
15	26.47500038	0	0	0	0	0	1.0
16	26.47500038	0	0	0	0	0	1.0
[LeftHandPinky1]
13	80.77799988	-4.887000084	-38.06099701	1.883373141	41.53843307	2.955888271	1.0
14	80.77799988	-4.887000084	-38.06099701	0.1660332084	30.62806702	-12.43403816	1.0
15	80.77799988	-4.887000084	-38.06099701	-2.163561344	13.06058216	-31.92859459	1.0
16	80.77799988	-4.887000084	-38.06099701	-3.816524744	-2.263805389	-48.68652344	1.0
[LeftHandPinky2]
13	36	0	0	0.01922362112	0.2871781588	-2.960742474	1.0
14	36	0	0	-0.2674778998	1.518272758	-15.20517921	1.0
15	36	0	0	-0.8491312265	3.06835413	-31.62887573	1.0
16	36	0	0	-1.395198584	3.786388397	-40.44378281	1.0
[LeftHandPinky3]
13	21.14200211	0	0	0.009659087285	-0.1708287299	1.812376738	1.0
14	21.14200211	0	0	-0.3223884106	1.646796823	-16.67051506	1.0
15	21.14200211	0	0	-1.108466029	3.468979359	-36.34586716	1.0
16	21.14200211	0	0	-1.78574574	4.20059967	-46.04708862	1.0
[LeftHandPinky4]
13	19.75699997	0	0	0	0	0	1.0
14	19.75699997	0	0	0	0	0	1.0
15	19.75699997	0	0	0	0	0	1.0
16	19.75699997	0	0	0	0	0	1.0
[RightShoulder]
13	-45.70000076	109.4620056	-26.28000069	14.47924042	-7.700830936	-39.97409439	1.0
14	-45.70000076	109.4620056	-26.28000069	14.15393925	-5.596127033	-43.30619049	1.0
15	-45.70000076	109.4620056	-26.28000069	13.19598675	-4.031088352	-44.9490242	1.0
16	-45.70000076	109.4620056	-26.28000069	11.95154858	-3.310141563	-44.35420609	1.0
[RightArm]
13	-105.9280014	-5.248000145	-22.32099915	-26.04063034	-1.415471315	-1.953266382	1.0
14	-105.9280014	-5.248000145	-22.32099915	-45.21380997	5.689023972	-5.484143734	1.0
15	-105.9280014	-5.248000145	-22.32099915	-59.8489151	10.33096886	-10.21406364	1.0
16	-105.9280014	-5.248000145	-22.32099915	-65.48575592	11.08991528	-13.88142967	1.0
[RightForeArm]
13	-278.414978	0	0	5.857813449e-06	10.64583874	1.271041242e-06	1.0
14	-278.414978	0	0	2.000753511e-06	7.015882015	-1.659292479e-06	1.0
15	-278.414978	0	0	-5.842504379e-06	5.936715603	-2.746023256e-06	1.0
16	-278.414978	0	0	-5.49655897e-06	9.890548706	2.420676765e-06	1.0
[RightHand]
13	-283.2879944	0	0.0009999999311	-80.24704742	-17.76572609	-12.96848679	1.0
14	-283.2879944	0	0.0009999999311	-73.91514587	-17.4360714	-17.04195976	1.0
15	-283.2879944	0	0.0009999999311	-66.51136017	-16.22057343	-21.03222656	1.0
16	-283.2879944	0	0.0009999999311	-60.08529663	-14.62795067	-24.20242691	1.0
[RightHandPinky1]
13	-80.76699829	-4.885000229	-38.06000137	0.4597275853	-24.40943336	-0.7266615033	1.0
14	-80.76699829	-4.885000229	-38.06000137	-0.3744932115	-22.10799789	13.19052124	1.0
15	-80.76699829	-4.885000229	-38.06000137	-1.855184078	-12.24401188	31.34891319	1.0
16	-80.76699829	-4.885000229	-38.06000137	-3.301793337	3.239243031	47.90744019	1.0
[RightHandPinky2]
13	-36	0	0.0009999999311	0.02159720846	-0.1638986319	2.160616875	1.0
14	-36	0	0.0009999999311	-0.1948049366	-1.118761063	14.12160873	1.0
15	-36	0	0.0009999999311	-0.6548168063	-2.405413151	31.19828415	1.0
16	-36	0	0.0009999999311	-1.109913588	-3.00972724	40.49766922	1.0
[RightHandPinky3]
13	-21.14200211	0	0	0.007774726022	0.1261452883	-1.692262292	1.0
14	-21.14200211	0	0	-0.2551237941	-1.309155345	16.68313026	1.0
15	-21.14200211	0	0	-0.877803266	-2.750639677	36.28138733	1.0
16	-21.14200211	0	0	-1.421619177	-3.340121269	46.10165024	1.0
[RightHandPinky4]
13	-19.75699997	0	0	0	0	0	1.0
14	-19.75699997	0	0	0	0	0	1.0
15	-19.75699997	0	0	0	0	0	1.0
16	-19.75699997	0	0	0	0	0	1.0
[RightHandRing1]
13	-91.03599548	-0.4390000105	-18.65100098	0.3086864352	-13.76912975	-5.67342329	1.0
14	-91.03599548	-0.4390000105	-18.65100098	-0.7418828607	-11.18474674	16.01406097	1.0
15	-91.03599548	-0.4390000105	-18.65100098	-2.302880287	-6.133226871	37.00486374	1.0
16	-91.03599548	-0.4390000105	-18.65100098	-3.64227128	-1.190288305	52.35306931	1.0
[RightHandRing2]
13	-31.54000092	0	0	0.007897206582	-0.3307329118	4.116708755	1.0
14	-31.54000092	0	0	-0.2606629133	-1.381249547	17.48662567	1.0
15	-31.54000092	0	0	-0.8321398497	-2.667852163	35.09388351	1.0
16	-31.54000092	0	0	-1.461025	-3.377503872	46.77404785	1.0
[RightHandRing3]
13	-29.37700081	0	0	-0.005141975824	0.3264934123	-4.111003399	1.0
14	-29.37700081	0	0	-0.1231956556	-0.887398541	11.12780476	1.0
15	-29.37700081	0	0	-0.543925643	-2.197264194	28.27939034	1.0
16	-29.37700081	0	0	-1.098432064	-2.996243477	40.2589035	1.0
[RightHandRing4]
13	-26.47500038	0	0	0	0	0	1.0
14	-26.47500038	0	0	0	0	0	1.0
15	-26.47500038	0	0	0	0	0	1.0
16	-26.47500038	0	0	0	0	0	1.0
[RightHandMiddle1]
13	-95.32500458	0	0	0.2015212476	7.099263191	-2.84414649	1.0
14	-95.32500458	0	0	-0.9812807441	2.743221283	19.44343376	1.0
15	-95.32500458	0	0	-2.521413088	-2.188960552	40.40336609	1.0
16	-95.32500458	0	0	-3.850519896	-5.499184608	55.49549103	1.0
[RightHandMiddle2]
13	-36.98199844	0	0	-0.02541750483	-0.5954723358	7.255823135	1.0
14	-36.98199844	0	0	-0.4106326401	-1.790866613	22.96508789	1.0
15	-36.98199844	0	0	-1.151174188	-3.072763443	41.47428131	1.0
16	-36.98199844	0	0	-1.91760385	-3.753997803	54.10528946	1.0
[RightHandMiddle3]
13	-29.50900078	0	0	-0.05564308539	-0.6631497741	8.156805038	1.0
14	-29.50900078	0	0	-0.3779315352	-1.806055784	22.97677994	1.0
15	-29.50900078	0	0	-0.9358612299	-2.803495884	37.15721893	1.0
16	-29.50900078	0	0	-1.548910975	-3.459886312	48.24838638	1.0
[RightHandMiddle4]
13	-28.3390007	0	0.0009999999311	0	0	0	1.0
14	-28.3390007	0	0.0009999999311	0	0	0	1.0
15	-28.3390007	0	0.0009999999311	0	0	0	1.0
16	-28.3390007	0	0.0009999999311	0	0	0	1.0
[RightHandIndex1]
13	-91.08300018	-5.167999744	22.60099792	-0.01243168674	15.7761755	6.336295128	1.0
14	-91.08300018	-5.167999744	22.60099792	-1.20308876	6.265386581	23.24361038	1.0
15	-91.08300018	-5.167999744	22.60099792	-2.46551013	-4.422580719	40.49184036	1.0
16	-91.08300018	-5.167999744	22.60099792	-3.580153942	-12.32121754	53.94660187	1.0
[RightHandIndex2]
13	-36.76399994	0	0	0.02224746346	-0.1952600777	2.534656286	1.0
14	-36.76399994	0	0	-0.2121069878	-1.198251009	15.08971024	1.0
15	-36.76399994	0	0	-0.7811419964	-2.58659029	33.92460632	1.0
16	-36.76399994	0	0	-1.501701236	-3.415236473	47.4607048	1.0
[RightHandIndex3]
13	-28.83100128	0	0	-0.02595739439	-0.2071838826	2.426806211	1.0
14	-28.83100128	0	0	-0.3855161071	-1.745746255	22.41499519	1.0
15	-28.83100128	0	0	-1.082943678	-3.008497953	40.32458878	1.0
16	-28.83100128	0	0	-1.586895943	-3.491348743	48.87495041	1.0
[RightHandIndex4]
13	-23.92700005	0	0	0	0	0	1.0
14	-23.92700005	0	0	0	0	0	1.0
15	-23.92700005	0	0	0	0	0	1.0
16	-23.92700005	0	0	0	0	0	1.0
[RightHandThumb1]
13	-24.64799881	-15.72700024	26.82600021	0.9995856881	45.74353409	-3.442806244	1.0
14	-24.64799881	-15.72700024	26.82600021	10.62291431	41.70616913	16.89557076	1.0
15	-24.64799881	-15.72700024	26.82600021	15.94952202	34.73175049	32.16439056	1.0
16	-24.64799881	-15.72700024	26.82600021	16.21627045	28.23867798	38.9641304	1.0
[RightHandThumb2]
13	-32.29800034	-18.64699936	18.64699936	12.61824512	-21.41474533	-6.733154774	1.0
14	-32.29800034	-18.64699936	18.64699936	26.25014305	-34.8865242	-15.72992516	1.0
15	-32.29800034	-18.64699936	18.64699936	42.85700989	-45.40653229	-28.37706184	1.0
16	-32.29800034	-18.64699936	18.64699936	59.12582779	-50.80171204	-41.87759781	1.0
[RightHandThumb3]
13	-26.52600098	-15.31399918	15.31399918	5.928993225	-16.29421616	-18.50961685	1.0
14	-26.52600098	-15.31399918	15.31399918	20.18408585	-30.07390213	-26.07810783	1.0
15	-26.52600098	-15.31399918	15.31399918	35.98023605	-42.41291809	-35.83506012	1.0
16	-26.52600098	-15.31399918	15.31399918	52.77823257	-49.20143509	-47.22680664	1.0
[RightHandThumb4]
13	-19.54599953	-11.28499985	11.28499985	0	0	0	1.0
14	-19.54599953	-11.28499985	11.28499985	0	0	0	1.0
15	-19.54599953	-11.28499985	11.28499985	0	0	0	1.0
16	-19.54599953	-11.28499985	11.28499985	0	0	0	1.0
[LeftUpLeg]
13	82.07800293	-67.51699829	-15.99599934	-33.97494888	4.136910915	6.330404282	1.0
14	82.07800293	-67.51699829	-15.99599934	-35.07096863	2.644548893	6.819719791	1.0
15	82.07800293	-67.51699829	-15.99599934	-36.3164711	0.881506741	7.082607269	1.0
16	82.07800293	-67.51699829	-15.99599934	-37.96530914	-0.9183221459	7.193294048	1.0
[LeftLeg]
13	0	-443.7049866	2.845999956	86.66118622	7.87166214	-9.242177963	1.0
14	0	-443.7049866	2.845999956	90.98738098	8.773032188	-8.079500198	1.0
15	0	-443.7049866	2.845999956	94.03912354	9.267004967	-6.933354855	1.0
16	0	-443.7049866	2.845999956	96.1342926	9.493405342	-5.894918919	1.0
[LeftFoot]
13	0	-444.2789917	-29.8219986	-64.76463318	0.4192733765	9.225054741	1.0
14	0	-444.2789917	-29.8219986	-70.48921967	0.3718808889	9.058328629	1.0
15	0	-444.2789917	-29.8219986	-75.11893463	0.5495484471	8.478078842	1.0
16	0	-444.2789917	-29.8219986	-78.60025787	0.8981984854	7.598562717	1.0
[LeftToeBase]
13	0	-87.28699493	107.1060028	-2.963961379e-05	1.428208066e-06	8.400461411e-07	1.0
14	0	-87.28699493	107.1060028	-1.443314159e-05	2.900233653e-07	-1.649338969e-06	1.0
15	0	-87.28699493	107.1060028	1.751846867e-06	4.387159436e-07	-2.717220468e-06	1.0
16	0	-87.28699493	107.1060028	-0.0001140691311	-1.919367833e-06	-3.226408808e-06	1.0
[RightUpLeg]
13	-82.07800293	-67.51699829	-15.99599934	-81.58486176	-3.60797596	-4.1109128	1.0
14	-82.07800293	-67.51699829	-15.99599934	-90.90093231	-1.706942439	-6.56205225	1.0
15	-82.07800293	-67.51699829	-15.99599934	-99.09328461	-0.1889752001	-9.89147377	1.0
16	-82.07800293	-67.51699829	-15.99599934	-105.8447037	0.3550713062	-13.3605547	1.0
[RightLeg]
13	0	-443.7049866	2.861999989	86.20607758	-7.623259068	7.70557642	1.0
14	0	-443.7049866	2.861999989	88.09690094	-8.253223419	4.100831509	1.0
15	0	-443.7049866	2.861999989	87.79985809	-8.536341667	0.704272747	1.0
16	0	-443.7049866	2.861999989	85.57365417	-8.84317112	-1.873561382	1.0
[RightFoot]
13	0	-444.2770081	-29.83799934	-17.11574554	-3.724215269	-4.331057549	1.0
14	0	-444.2770081	-29.83799934	-12.1065321	-3.091212273	-1.612454772	1.0
15	0	-444.2770081	-29.83799934	-6.221792221	-2.948157549	1.458908081	1.0
16	0	-444.2770081	-29.83799934	0.01822771877	-3.414073467	4.073710918	1.0
[RightToeBase]
13	0	-87.28699493	107.1060028	-1.515573604e-05	-2.909377805e-08	-1.999551955e-07	1.0
14	0	-87.28699493	107.1060028	-1.515573604e-05	-2.909377805e-08	-1.999551955e-07	1.0
15	0	-87.28699493	107.1060028	-1.515573604e-05	-2.909377805e-08	-1.999551955e-07	1.0
16	0	-87.28699493	107.1060028	-1.515573604e-05	-2.909377805e-08	-1.999551955e-07	1.0
[EndOfFile]
